<svg width="50" height="56" viewBox="0 0 50 56" fill="none" xmlns="http://www.w3.org/2000/svg">
<path d="M9.89594 39.8177C9.89594 34.1079 16.7473 26.4121 16.7473 26.4121C16.7473 26.4121 24.1062 34.3561 24.1062 39.8177C24.1062 43.2932 21.8224 47.0169 16.7473 47.0169C11.6722 47.0169 9.89594 42.5484 9.89594 39.8177Z" fill="#418DFF"/>
<path d="M31.2113 39.8177C31.2113 34.1079 37.7201 26.4121 37.7201 26.4121C37.7201 26.4121 44.711 34.3561 44.711 39.8177C44.711 43.2932 42.5414 47.0169 37.7201 47.0169C32.8988 47.0169 31.2113 42.5484 31.2113 39.8177Z" fill="#418DFF"/>
<path d="M21.2642 17.7918C21.2642 12.082 27.773 4.38623 27.773 4.38623C27.773 4.38623 34.7639 12.3303 34.7639 17.7918C34.7639 21.2673 32.5943 24.9911 27.773 24.9911C22.9516 24.9911 21.2642 20.5225 21.2642 17.7918Z" fill="#418DFF"/>
</svg>
