<svg width="226" height="28" viewBox="0 0 226 28" fill="none" xmlns="http://www.w3.org/2000/svg">
<g clip-path="url(#clip0_113_6)">
<path d="M1.75434 28H1.74402C1.44475 28 1.14548 27.9162 0.877169 27.7695C0.330228 27.4553 0 26.8687 0 26.2402V1.75982C0 1.13131 0.340548 0.544706 0.887489 0.230453C1.14548 0.083801 1.43443 0 1.72338 0H1.79562C2.09489 0.0104751 2.38384 0.083801 2.64183 0.240928L23.5391 12.5701C24.0757 12.8844 24.4059 13.471 24.4059 14.0995C24.4059 14.728 24.0654 15.3146 23.5288 15.6184L2.63151 27.7695C2.37352 27.9162 2.06393 28 1.76466 28H1.75434Z" fill="#EA1D26"/>
<path d="M106.426 22.8672H116.622C120.358 22.8462 121.245 20.835 121.266 19.9132H131.833C131.833 20.0703 131.833 20.8141 131.823 20.9712C131.668 25.8107 128.934 27.8533 117.954 27.8533H102.928C94.6621 27.8533 90.2659 24.1452 90.2659 19.8608V8.78862C90.2659 3.71866 94.724 0.314246 103.248 0.314246H117.572C127.117 0.314246 131.338 1.68649 131.782 6.54694C131.813 6.84025 131.823 7.66778 131.823 7.98204L121.204 7.96109C121.091 5.55181 119.316 4.69285 117.087 4.65095C116.983 4.65095 116.87 4.64047 116.756 4.64047H106.767C103.083 4.64047 100.833 6.14889 100.833 8.86195V19.1066C100.823 21.474 103.248 22.8672 106.426 22.8672ZM86.3858 27.7695V9.04002C86.3858 3.47773 81.7729 0.230445 72.671 0.230445H61.1646C54.0543 0.230445 52.4342 2.28357 52.2484 2.62925V0.230445H41.8978V27.7381H52.2484V10.5799C52.0111 6.85072 52.7747 4.45192 60.4732 4.65095C60.4732 4.65095 71.2675 4.6719 71.7319 4.6719C73.2798 4.5043 76.2312 6.00224 76.0455 9.06097V27.7695H86.3858ZM37.7493 27.7067H29.0396V0.0733185H37.7493V27.7067ZM193.854 11.3236V8.69435C193.854 6.58885 195.702 4.64047 199.84 4.64047H210.531C213.926 4.77665 214.845 6.89262 214.741 7.99251C215.619 8.00299 225.99 7.99251 225.99 7.99251C225.99 7.86681 225.979 7.10213 225.979 6.97642C225.763 3.63486 222.718 0.21997 212.853 0.21997H196.744C186.497 0.21997 182.947 3.51963 182.947 7.57351V27.8533H193.854V24.7318V11.3236ZM166.755 20.6255C166.755 21.8406 165.31 22.3434 160.873 22.3434H151.162C146.952 22.3434 145.424 21.9454 145.424 20.6255V17.2211C145.424 15.9012 146.952 15.5137 151.162 15.5137H160.873C165.3 15.5137 166.755 16.006 166.755 17.2211V20.6255ZM178.592 27.801V7.74111C178.592 3.58248 175.042 0.188545 164.794 0.188545H148.685C138.541 0.188545 135.61 3.87579 135.549 7.37448C135.549 7.41638 135.549 7.95061 135.549 7.99251C135.549 7.99251 145.765 8.00299 146.549 7.99251C146.518 7.00785 147.22 4.8395 150.76 4.66142H161.698C165.837 4.66142 167.684 6.48409 167.684 8.65244V12.5178C166.497 11.1246 164.856 10.4332 161.626 10.4332H148.417C138.221 10.4332 135.27 12.5597 135.27 16.1107V22.333C135.27 26.0621 139.542 27.7905 146.178 27.7905H160.77C164.712 27.7905 165.826 26.963 167.674 25.3707V27.7905H178.592V27.801Z" fill="black"/>
</g>
<defs>
<clipPath id="clip0_113_6">
<rect width="226" height="28" fill="white"/>
</clipPath>
</defs>
</svg>
