<svg width="52" height="55" viewBox="0 0 52 55" fill="none" xmlns="http://www.w3.org/2000/svg">
<path d="M30.3495 6.00457C28.345 2.53262 23.3337 2.53263 21.3291 6.00457L3.80875 36.3508C1.80422 39.8227 4.30989 44.1627 8.31895 44.1627H43.3597C47.3688 44.1627 49.8744 39.8227 47.8699 36.3508L30.3495 6.00457Z" stroke="#E90000" stroke-width="4.80732"/>
<path d="M29.0617 13.6386L28.4329 30.6645H22.9189L22.2901 13.6386H29.0617ZM25.6759 38.7905C24.7408 38.7905 23.9386 38.464 23.2695 37.811C22.6085 37.15 22.282 36.3479 22.2901 35.4047C22.282 34.4857 22.6085 33.6997 23.2695 33.0467C23.9386 32.3937 24.7408 32.0672 25.6759 32.0672C26.5627 32.0672 27.3446 32.3937 28.0218 33.0467C28.707 33.6997 29.0537 34.4857 29.0617 35.4047C29.0537 36.0335 28.8884 36.6058 28.5659 37.1218C28.2515 37.6297 27.8404 38.0368 27.3325 38.3431C26.8247 38.6414 26.2724 38.7905 25.6759 38.7905Z" fill="black"/>
</svg>
